# UrbanTwin 3D CAD Sample Model - Commercial High-Rise Tower
# Category: Building Infrastructure (12-Story Glass Tower with Podium)
g Commercial_Podium
v -20.0 0.0 -20.0
v  20.0 0.0 -20.0
v  20.0 8.0 -20.0
v -20.0 8.0 -20.0
v -20.0 0.0  20.0
v  20.0 0.0  20.0
v  20.0 8.0  20.0
v -20.0 8.0  20.0
f 1 2 3 4
f 5 8 7 6
f 1 5 6 2
f 2 6 7 3
f 3 7 8 4
f 5 1 4 8

g Main_Tower
v -14.0  8.0 -14.0
v  14.0  8.0 -14.0
v  14.0 48.0 -14.0
v -14.0 48.0 -14.0
v -14.0  8.0  14.0
v  14.0  8.0  14.0
v  14.0 48.0  14.0
v -14.0 48.0  14.0
f 9 10 11 12
f 13 16 15 14
f 9 13 14 10
f 10 14 15 11
f 11 15 16 12
f 13 9 12 16
