# UrbanTwin 3D CAD Sample Model - Elevated Flyover Road Corridor
# Category: Transportation Infrastructure (4-Lane Elevated Flyover Deck)
g Elevated_Flyover_Deck
v -12.0 6.0 -40.0
v  12.0 6.0 -40.0
v  12.0 7.5 -40.0
v -12.0 7.5 -40.0
v -12.0 6.0  40.0
v  12.0 6.0  40.0
v  12.0 7.5  40.0
v -12.0 7.5  40.0
f 1 2 3 4
f 5 8 7 6
f 1 5 6 2
f 2 6 7 3
f 3 7 8 4
f 5 1 4 8

g Flyover_Pillar_1
v -2.0 0.0 -15.0
v  2.0 0.0 -15.0
v  2.0 6.0 -15.0
v -2.0 6.0 -15.0
v -2.0 0.0 -11.0
v  2.0 0.0 -11.0
v  2.0 6.0 -11.0
v -2.0 6.0 -11.0
f 9 10 11 12
f 13 16 15 14
f 9 13 14 10
f 10 14 15 11
f 11 15 16 12
f 13 9 12 16
